/* XPM */
static char *_9d56655c39c4d648abbc2cce4b1d4d1[] = {
/* columns rows colors chars-per-pixel */
"32 32 149 2 ",
"   c #083400",
".  c #083A00",
"X  c #2E3625",
"o  c #264700",
"O  c #2C4407",
"+  c #3D5600",
"@  c #3F5A00",
"#  c #196B00",
"$  c #3B6E04",
"%  c #297400",
"&  c #3B7D00",
"*  c #3E7F00",
"=  c #3D740E",
"-  c #3D6323",
";  c #437200",
":  c #4B7A00",
">  c #497F09",
",  c #547B00",
"<  c #587E00",
"1  c #56771E",
"2  c #436221",
"3  c #54782E",
"4  c #586D31",
"5  c #4D4B4F",
"6  c #4F4A5A",
"7  c #656565",
"8  c #686868",
"9  c #6C6C6C",
"0  c #6D6D6D",
"q  c gray43",
"w  c #6F6F71",
"e  c #727272",
"r  c gray46",
"t  c #767676",
"y  c #797979",
"u  c gray49",
"i  c #349500",
"p  c #448E00",
"a  c #548800",
"s  c #449400",
"d  c #4D9D00",
"f  c #6D9C1B",
"g  c #43B200",
"h  c #72AB00",
"j  c #698F35",
"k  c #5CC800",
"l  c #65CE00",
"z  c #67D900",
"x  c #78D100",
"c  c #79D900",
"v  c #7EED00",
"b  c #6C8640",
"n  c #6F8D55",
"m  c #94D100",
"M  c #88E600",
"N  c #8EEA00",
"B  c #97ED00",
"V  c #95FF00",
"C  c #AAFF00",
"Z  c #B1FF00",
"A  c #B6FF00",
"S  c #BEFF00",
"D  c #C2FF00",
"F  c #A4C950",
"G  c #AFCB6B",
"H  c #827E87",
"J  c #85799E",
"K  c #808080",
"L  c gray52",
"P  c #8B8B8B",
"I  c #8E8E8E",
"U  c gray56",
"Y  c #8E8691",
"T  c #8D8693",
"R  c #90819E",
"E  c #979797",
"W  c gray60",
"Q  c #9A9A9A",
"!  c #9A9C99",
"~  c #9F9F9F",
"^  c #A2B089",
"/  c #988FA1",
"(  c #9C8EAC",
")  c gray63",
"_  c #A3A2A7",
"`  c #A5A5A5",
"'  c gray65",
"]  c #A7A4AD",
"[  c gray66",
"{  c #ACADAA",
"}  c #AFADAE",
"|  c #AEAEAE",
" . c #AFAFAF",
".. c #B2B2B2",
"X. c gray70",
"o. c #B6B1B5",
"O. c #B6B6B6",
"+. c #B7B7B7",
"@. c #B8B7BA",
"#. c gray72",
"$. c #B9B9B9",
"%. c #BBBBBB",
"&. c #B7C49E",
"*. c #C3BDCB",
"=. c #C3BDCC",
"-. c #C3C3C3",
";. c #C6C6C6",
":. c gray78",
">. c #C8C8C8",
",. c gray79",
"<. c #CECECE",
"1. c gray81",
"2. c #D2D2D2",
"3. c LightGray",
"4. c gray83",
"5. c #D5D5D5",
"6. c #DAD5DD",
"7. c gray86",
"8. c gainsboro",
"9. c #DDDDDD",
"0. c #DEDFDC",
"q. c #E3F1CB",
"w. c #D2C0EA",
"e. c #DFD8EC",
"r. c #DACCF7",
"t. c #DCC4F8",
"y. c #E9DAFF",
"u. c #E1E1E1",
"i. c #E2E2E2",
"p. c #E6E6E6",
"a. c #E7E7E7",
"s. c gray91",
"d. c gray92",
"f. c #F1F1F1",
"g. c #F4F6F2",
"h. c #F4F4F4",
"j. c #F5F5F4",
"k. c gray96",
"l. c gray97",
"z. c #F8F5FC",
"x. c #FFF4FF",
"c. c #FFF7FF",
"v. c #F8F8F8",
"b. c gray98",
"n. c #FBFBFB",
"m. c #FFF9FF",
"M. c gray99",
"N. c gray100",
"B. c None",
/* pixels */
"B.B.B.B.B.B.B.B.B.B.B.B.B.B.B.B.B.B.B.B.B.B.B.B.B.B.B.B.B.B.B.B.",
"B.B.B.B.B.B.B.B.B.B.B.B.B.B.B.B.B.B.B.B.B.B.B.B.B.B.B.B.B.B.B.B.",
"B.B.B.B.B.B.B.B.B.B.B.B.B.B.B.B.B.B.B.B.B.B.B.B.B.B.B.B.B.B.B.B.",
"B.B.B.B.B.B.B.B.B.B.B.B.B.B.B.B.B.B.B.B.B.B.B.B.B.B.B.B.B.B.B.B.",
"B.B.B.B.B.B.B.B.B.B.B.B.B.B.B.B.B.B.B.B.B.B.B.B.B.B.B.B.B.B.B.B.",
"B.B.B.B.B.B.B.B.B.B.B.B.B.B.B.B.B.B.B.B.B.B.B.B.B.B.B.B.B.B.B.B.",
"B.B.B.B.B.B.B.B.B.B.B.B.B.B.B.B.B.B.B.B.B.B.B.B.B.B.B.B.B.B.B.B.",
"B.B.B.B.B.B.B.B.B.B.B.B.B.B.B.B.B.B.B.B.B.B.B.B.B.B.B.B.B.B.B.B.",
"B.B.B.B.B.B.B.B.B.B.B.B.B.B.B.B.B.B.B.B.B.B.B.B.B.B.B.B.B.B.B.B.",
"B.B.B.B.B.B.B.B.B.B.B.B.B.B.B.B.B.B.B.B.B.B.B.B.B.B.B.B.B.B.B.B.",
"B.B.B.e b.N.N.k.B.B.B.7 d.N.N.9.B.B.;.N.N.N.Q B.B.@ m A S + B.B.",
"B.B.B.N.a.B.B.d.N.B.B.N.N.....y B.f.N.<.) N.N.J o A Z D < B.B.B.",
"B.B.;.N.I B.B.E N.q Q N.q B.B.B.r N.#.B.B.B.b.x.f N C h B.B.B.B.",
"B.B.7.N.b.N.N.N.N.P -.N.B.B.B.B.R N.H B.B.B.4.N.b c B B.B.B.B.B.",
"B.B.-.N.y B.B.B.B.B.2.N.q B.B.B.2 n 5 B.B.B.k.x.1 V : B.B.B.B.B.",
"B.B.B.N.k.y B.+.E B.B.N.N.@.T = g i % X / g.N.( p M B.B.B.B.B.B.",
"B.B.B.B.i.N.N.N.~ B.B.8 a.N.N.w # l z d 6.z.Q $ v ; B.B.B.B.B.B.",
"B.B.B.B.B.r B.B.B.B.B.B.B.B.B.B.B.> j * O 6   k x B.B.B.B.B.B.B.",
"B.B.B.i.9.#.B.} +.4.B.+.P B.u { T w.t.o._ e.} s & B.B.B.B.B.B.B.",
"B.B.B.N.B.B.2.N.u N.9.2.` B.[ <.*.q.- N.&.4 m.3 B.B.B.B.B.B.B.B.",
"B.B.B.N.B.B.a.d.q q B.d.} B.#.,.*.^ . r.F a y.B.B.B.B.B.B.B.B.B.",
"B.B.B.N.B.B.B.k.Q ` B.B.N.,.N.+.9.] B.m.G , N.B.B.B.B.B.B.B.B.B.",
"B.B.B.B.B.B.B.B.~ L B.B.B.U B.B.B.B.B.B.B.B.B.B.B.B.B.B.B.B.B.B.",
"B.B.B.B.B.B.B.B.B.B.B.B.B.B.B.B.B.B.B.B.B.B.B.B.B.B.B.B.B.B.B.B.",
"B.B.B.B.B.B.B.B.B.B.B.B.B.B.B.B.B.B.B.B.B.B.B.B.B.B.B.B.B.B.B.B.",
"B.B.B.B.B.B.B.B.B.B.B.B.B.B.B.B.B.B.B.B.B.B.B.B.B.B.B.B.B.B.B.B.",
"B.B.B.B.B.B.B.B.B.B.B.B.B.B.B.B.B.B.B.B.B.B.B.B.B.B.B.B.B.B.B.B.",
"B.B.B.B.B.B.B.B.B.B.B.B.B.B.B.B.B.B.B.B.B.B.B.B.B.B.B.B.B.B.B.B.",
"B.B.B.B.B.B.B.B.B.B.B.B.B.B.B.B.B.B.B.B.B.B.B.B.B.B.B.B.B.B.B.B.",
"B.B.B.B.B.B.B.B.B.B.B.B.B.B.B.B.B.B.B.B.B.B.B.B.B.B.B.B.B.B.B.B.",
"B.B.B.B.B.B.B.B.B.B.B.B.B.B.B.B.B.B.B.B.B.B.B.B.B.B.B.B.B.B.B.B.",
"B.B.B.B.B.B.B.B.B.B.B.B.B.B.B.B.B.B.B.B.B.B.B.B.B.B.B.B.B.B.B.B."
};
