/* XPM */
static char *_b1a0ff3320e4bceaf5d50f0ee1b04ac[] = {
/* columns rows colors chars-per-pixel */
"48 48 136 2 ",
"   c #000400",
".  c #0B0E08",
"X  c #001800",
"o  c #052A00",
"O  c #003900",
"+  c #103A00",
"@  c #1B3015",
"#  c #2A3E03",
"$  c #343434",
"%  c #39313E",
"&  c gray24",
"*  c #1A4501",
"=  c #115600",
"-  c #185100",
";  c #274005",
":  c #274A00",
">  c #364F00",
",  c #225700",
"<  c #3F5A00",
"1  c #3E541F",
"2  c #3F5B1B",
"3  c #1B6C00",
"4  c #1F7000",
"5  c #2C6A00",
"6  c #316900",
"7  c #227100",
"8  c #357A00",
"9  c #3F4735",
"0  c #437700",
"q  c #457F00",
"w  c #4C7C00",
"e  c #466611",
"r  c #5C7C15",
"t  c #5D791B",
"y  c #607F17",
"u  c #53643D",
"i  c #637937",
"p  c #413F44",
"a  c #464646",
"s  c #4A4A4A",
"d  c #4B415B",
"f  c #545455",
"g  c #575659",
"h  c #58545B",
"j  c gray37",
"k  c #576244",
"l  c #626855",
"z  c #697358",
"x  c #675A76",
"c  c #636263",
"v  c #6B6B6B",
"b  c #727272",
"n  c #7C7C7C",
"m  c #2B8100",
"M  c #468A00",
"N  c #4B8D00",
"B  c #499100",
"V  c #5D9200",
"C  c #689600",
"Z  c #6D9A00",
"A  c #49AC00",
"S  c #50A500",
"D  c #59A700",
"F  c #51AD00",
"G  c #59AA00",
"H  c #58B100",
"J  c #56B800",
"K  c #5DBA00",
"L  c #71A000",
"P  c #60B200",
"I  c #698830",
"U  c #65C100",
"Y  c #63CC00",
"T  c #6DCC00",
"R  c #74CC00",
"E  c #6BD200",
"W  c #6CD900",
"Q  c #73D300",
"!  c #7DD100",
"~  c #75DD00",
"^  c #7BD800",
"/  c #7F857B",
"(  c #89CC00",
")  c #8FDC00",
"_  c #94D100",
"`  c #94DC00",
"'  c #87E700",
"]  c #8DE300",
"[  c #8EEB00",
"{  c #91E400",
"}  c #97F900",
"|  c #A3E500",
" . c #A6ED00",
".. c #A4F500",
"X. c #AAF200",
"o. c #A5FF00",
"O. c #ABFB00",
"+. c #BEFF00",
"@. c #C8FF00",
"#. c #7C669A",
"$. c #81738D",
"%. c #847D8D",
"&. c #887C9F",
"*. c #848484",
"=. c #898989",
"-. c #8A8296",
";. c #908A9E",
":. c #949494",
">. c #9B9B9B",
",. c #9687A8",
"<. c #9C8CAB",
"1. c #A29BAA",
"2. c #AA98BE",
"3. c #A3A3A3",
"4. c #ACACAC",
"5. c #AAA5B5",
"6. c #ACA7B8",
"7. c #B3B3B4",
"8. c #BCBCBC",
"9. c #C0BBC4",
"0. c #C1AFD5",
"q. c #C4C4C4",
"w. c #CCCCCC",
"e. c #CFD0CF",
"r. c #C8C0D0",
"t. c #D2D2D2",
"y. c #DCDCDC",
"u. c #D1C2E3",
"i. c #E5D2FF",
"p. c #E3E3E4",
"a. c #ECECEC",
"s. c #EEE0FF",
"d. c gray96",
"f. c #FFF3FF",
"g. c #FFFFFF",
"h. c None",
/* pixels */
"h.h.h.h.h.h.h.h.h.h.h.h.h.h.h.h.h.h.h.h.h.h.h.h.h.h.h.h.h.h.h.h.h.h.h.h.h.h.h.h.h.h.h.h.h.h.h.h.",
"h.h.h.h.h.h.h.h.h.h.h.h.h.h.h.h.h.h.h.h.h.h.h.h.h.h.h.h.h.h.h.h.h.h.h.h.h.h.h.h.h.h.h.h.h.h.h.h.",
"h.h.h.h.h.h.h.h.h.h.h.h.h.h.h.h.h.h.h.h.h.h.h.h.h.h.h.h.h.h.h.h.h.h.h.h.h.h.h.h.h.h.h.h.h.h.h.h.",
"h.h.h.h.h.h.h.h.h.h.h.h.h.h.h.h.h.h.h.h.h.h.h.h.h.h.h.h.h.h.h.h.h.h.h.h.h.h.h.h.h.h.h.h.h.h.h.h.",
"h.h.h.h.h.h.h.h.h.h.h.h.h.h.h.h.h.h.h.h.h.h.h.h.h.h.h.h.h.h.h.h.h.h.h.h.h.h.h.h.h.h.h.h.h.h.h.h.",
"h.h.h.h.h.h.h.h.h.h.h.h.h.h.h.h.h.h.h.h.h.h.h.h.h.h.h.h.h.h.h.h.h.h.h.h.h.h.h.h.h.h.h.h.h.h.h.h.",
"h.h.h.h.h.h.h.h.h.h.h.h.h.h.h.h.h.h.h.h.h.h.h.h.h.h.h.h.h.h.h.h.h.h.h.h.h.h.h.h.h.h.h.h.h.h.h.h.",
"h.h.h.h.h.h.h.h.h.h.h.h.h.h.h.h.h.h.h.h.h.h.h.h.h.h.h.h.h.h.h.h.h.h.h.h.h.h.h.h.h.h.h.h.h.h.h.h.",
"h.h.h.h.h.h.h.h.h.h.h.h.h.h.h.h.h.h.h.h.h.h.h.h.h.h.h.h.h.h.h.h.h.h.h.h.h.h.h.h.h.h.h.h.h.h.h.h.",
"h.h.h.h.h.h.h.h.h.h.h.h.h.h.h.h.h.h.h.h.h.h.h.h.h.h.h.h.h.h.h.h.h.h.h.h.h.h.h.h.h.h.h.h.h.h.h.h.",
"h.h.h.h.h.h.h.h.h.h.h.h.h.h.h.h.h.h.h.h.h.h.h.h.h.h.h.h.h.h.h.h.h.h.h.h.h.h.h.h.h.h.h.h.h.h.h.h.",
"h.h.h.h.h.h.h.h.h.h.h.h.h.h.h.h.h.h.h.h.h.h.h.h.h.h.h.h.h.h.h.h.h.h.h.h.h.h.h.h.h.h.h.h.h.h.h.h.",
"h.h.h.h.h.h.h.h.h.h.h.h.h.h.h.h.h.h.h.h.h.h.h.h.h.h.h.h.h.h.h.h.h.h.h.h.h.h.h.h.h.h.h.h.h.h.h.h.",
"h.h.h.h.h.h.h.h.h.h.h.h.h.h.h.h.h.h.h.h.h.h.h.h.h.h.h.h.h.h.h.h.h.h.h.h.h.h.h.h.h.h.h.h.h.h.h.h.",
"h.h.h.h.h.h.h.h.f f h.h.h.h.h.h.h.h.h.h.h.h.h.h.h.h.h.h.h.h.h.h.h.h.h.h.h.h.h.h.h.h.h.h.h.h.h.h.",
"h.h.h.h.h.h.8.d.g.g.d.8.h.h.h.h.h.h.4.a.g.g.a.8.h.h.h.n w.g.g.g.t.*.h.h.h.h.h.L _  . .| < h.h.h.",
"h.h.h.h.f g.g.g.g.g.g.g.g.h.h.h.s g.g.g.g.g.g.p.h.h.8.g.g.g.g.g.g.g.w.h.h.> O.@.O.X.@.Z h.h.h.h.",
"h.h.h.h.g.g.g.4.f s >.g.g.a.h.h.g.g.g.a.>.:.8.h.h.=.g.g.g.4.=.4.g.g.g.&.h.O...` ` +.C h.h.h.h.h.",
"h.h.h.b g.g.>.h.h.h.h.=.g.g.h.h.g.g.t.h.h.h.h.h.h.d.g.g.v h.h.h.f g.g.s.e [ ) ) O.( h.h.h.h.h.h.",
"h.h.h.>.g.g.t.w.w.t.w.w.g.g.$ =.g.g.g h.h.h.h.h.h.g.g.w.h.h.h.h.h.q.g.g.l G { ) o.h.h.h.h.h.h.h.",
"h.h.h.3.g.g.g.g.g.g.g.g.g.g.& >.g.g.h.h.h.h.h.h.h.g.g.q.h.h.h.h.h.:.g.g.v B ] o.V h.h.h.h.h.h.h.",
"h.h.h.=.g.g.:.h.h.h.h.h.h.s h.>.g.g.n h.h.h.h.h.h./ %.<.h.h.h.h.h.t.g.g.k G ] ] h.h.h.h.h.h.h.h.",
"h.h.h.h.g.g.8.h.h.h.h.h.h.h.h.b g.g.d.f h.h.h.6 8 3 = * h.h.h.h.*.g.g.i.; ^ } w h.h.h.h.h.h.h.h.",
"h.h.h.h.e.g.g.d.7.3.7.g.g.h.h.h.a.g.g.g.t.q.c 7 Y S K Y 5 % 9.t.g.g.g.x 5 [ ! h.h.h.h.h.h.h.h.h.",
"h.h.h.h.h.y.g.g.g.g.g.g.g.:.h.h.h.p.g.g.g.g.g.f m H G H ~ * 0.g.g.g.#.+ ~ ' 0 h.h.h.h.h.h.h.h.h.",
"h.h.h.h.h.h.v 3.8.y.w.>.h.h.h.h.h.h.b 8.t.t.8.h.o W R K T E 1 7.:.u , U R R h.h.h.h.h.h.h.h.h.h.",
"h.h.h.h.h.h.h.h.h.h.h.h.h.h.h.h.h.h.h.h.h.h.h.h.h.: + 2 1 N * h.. X J R Q 0 h.h.h.h.h.h.h.h.h.h.",
"h.h.h.h.>.y.>.g.g.h.h.y.g.g.w.h.h.p.8.h.h.h.y.n h u.,.g.f.d g g.g.2.@ F T h.h.h.h.h.h.h.h.h.h.h.",
"h.h.h.h.4.g.g.3.:.s d.p.h.h.d.p.h.g.p.h.h.h.g.:.c g.g.-.p.g.g.1.8.g.$.7 N h.h.h.h.h.h.h.h.h.h.h.",
"h.h.h.h.4.g.a h.h.*.g.4.h.h.w.g.c a.t.h.h.h.g.=.j g.z O u g.5.X # g.r.- h.h.h.h.h.h.h.h.h.h.h.h.",
"h.h.h.h.7.g.h.h.h.=.g.w.y.p.8.8.s d.t.h.h.h.g.=.c g.9 A I g.-.M r g.t.  h.h.h.h.h.h.h.h.h.h.h.h.",
"h.h.h.h.7.g.h.h.h.v g.=.h.h.h.h.h.g.d.h.h.>.g.n c g.h.h.i g.;.N r g.t.h.h.h.h.h.h.h.h.h.h.h.h.h.",
"h.h.h.h.w.g.h.h.h.h.w.g.a.y.g.>.h.:.g.g.a.g.g.>.b g.h.h.p g.6.q t g.a.h.h.h.h.h.h.h.h.h.h.h.h.h.",
"h.h.h.h.v 3.h.h.h.h.h.b t.p.:.h.h.h.n w.q.h.:.j h.3.h.h.h.3.c h.h.>.n h.h.h.h.h.h.h.h.h.h.h.h.h.",
"h.h.h.h.h.h.h.h.h.h.h.h.h.h.h.h.h.h.h.h.h.h.h.h.h.h.h.h.h.h.h.h.h.h.h.h.h.h.h.h.h.h.h.h.h.h.h.h.",
"h.h.h.h.h.h.h.h.h.h.h.h.h.h.h.h.h.h.h.h.h.h.h.h.h.h.h.h.h.h.h.h.h.h.h.h.h.h.h.h.h.h.h.h.h.h.h.h.",
"h.h.h.h.h.h.h.h.h.h.h.h.h.h.h.h.h.h.h.h.h.h.h.h.h.h.h.h.h.h.h.h.h.h.h.h.h.h.h.h.h.h.h.h.h.h.h.h.",
"h.h.h.h.h.h.h.h.h.h.h.h.h.h.h.h.h.h.h.h.h.h.h.h.h.h.h.h.h.h.h.h.h.h.h.h.h.h.h.h.h.h.h.h.h.h.h.h.",
"h.h.h.h.h.h.h.h.h.h.h.h.h.h.h.h.h.h.h.h.h.h.h.h.h.h.h.h.h.h.h.h.h.h.h.h.h.h.h.h.h.h.h.h.h.h.h.h.",
"h.h.h.h.h.h.h.h.h.h.h.h.h.h.h.h.h.h.h.h.h.h.h.h.h.h.h.h.h.h.h.h.h.h.h.h.h.h.h.h.h.h.h.h.h.h.h.h.",
"h.h.h.h.h.h.h.h.h.h.h.h.h.h.h.h.h.h.h.h.h.h.h.h.h.h.h.h.h.h.h.h.h.h.h.h.h.h.h.h.h.h.h.h.h.h.h.h.",
"h.h.h.h.h.h.h.h.h.h.h.h.h.h.h.h.h.h.h.h.h.h.h.h.h.h.h.h.h.h.h.h.h.h.h.h.h.h.h.h.h.h.h.h.h.h.h.h.",
"h.h.h.h.h.h.h.h.h.h.h.h.h.h.h.h.h.h.h.h.h.h.h.h.h.h.h.h.h.h.h.h.h.h.h.h.h.h.h.h.h.h.h.h.h.h.h.h.",
"h.h.h.h.h.h.h.h.h.h.h.h.h.h.h.h.h.h.h.h.h.h.h.h.h.h.h.h.h.h.h.h.h.h.h.h.h.h.h.h.h.h.h.h.h.h.h.h.",
"h.h.h.h.h.h.h.h.h.h.h.h.h.h.h.h.h.h.h.h.h.h.h.h.h.h.h.h.h.h.h.h.h.h.h.h.h.h.h.h.h.h.h.h.h.h.h.h.",
"h.h.h.h.h.h.h.h.h.h.h.h.h.h.h.h.h.h.h.h.h.h.h.h.h.h.h.h.h.h.h.h.h.h.h.h.h.h.h.h.h.h.h.h.h.h.h.h.",
"h.h.h.h.h.h.h.h.h.h.h.h.h.h.h.h.h.h.h.h.h.h.h.h.h.h.h.h.h.h.h.h.h.h.h.h.h.h.h.h.h.h.h.h.h.h.h.h.",
"h.h.h.h.h.h.h.h.h.h.h.h.h.h.h.h.h.h.h.h.h.h.h.h.h.h.h.h.h.h.h.h.h.h.h.h.h.h.h.h.h.h.h.h.h.h.h.h."
};
