/* XPM */
static char *fa8619185a144b20dff6acb1814d71f1[] = {
/* columns rows colors chars-per-pixel */
"16 16 51 1 ",
"  c #157000",
". c #537600",
"X c #7A7B74",
"o c #797979",
"O c #3B8600",
"+ c #488F00",
"@ c #70A435",
"# c #71AB4E",
"$ c #91E100",
"% c #A9E000",
"& c #94DC28",
"* c #B1FA2D",
"= c #8A9477",
"- c #9FD065",
"; c #858F81",
": c #8B8B8B",
"> c gray55",
", c #939393",
"< c gray59",
"1 c #989898",
"2 c #99989A",
"3 c #9A9A9A",
"4 c #9D9D9D",
"5 c #A1A696",
"6 c #A098A7",
"7 c #A0A0A0",
"8 c gray63",
"9 c #AAA7AF",
"0 c #AAAAAA",
"q c #B2B3A8",
"w c #B2B2B2",
"e c gray70",
"r c gray71",
"t c #B7B0BB",
"y c #BCBCBC",
"u c #B5C896",
"i c #DBEBB0",
"p c #CECECE",
"a c gray81",
"s c #D2D0D5",
"d c #DFDFDF",
"f c #DFDFE0",
"g c #EFDDFA",
"h c gray88",
"j c #E4E4E4",
"k c #E6E6E6",
"l c #F4E8FF",
"z c #F6E9FF",
"x c gray94",
"c c gray100",
"v c None",
/* pixels */
"vvvvvvvvvvvvvvvv",
"vvvvvvvvvvvvvvvv",
"vvvvvvvvvvvvvvvv",
"vvvvvvvvvvvvvvvv",
"vvvvvvvvvvvvvvvv",
"vvrrvvj7vafvv%.v",
"vc0whjvvg6vz*$vv",
"vxp<vdvv#vvz&vvv",
"vvr4vvs; +t-Ovvv",
"vv:o2:vvqu2@vvvv",
"v,v72yv95=iXvvvv",
"vvvvvvvvvvvvvvvv",
"vvvvvvvvvvvvvvvv",
"vvvvvvvvvvvvvvvv",
"vvvvvvvvvvvvvvvv",
"vvvvvvvvvvvvvvvv"
};
