<?xml version="1.0" encoding="utf-8"?>
<!-- Generator: Adobe Illustrator 19.0.0, SVG Export Plug-In . SVG Version: 6.00 Build 0)  -->
<svg version="1.1"
	 id="svg2" xmlns:sodipodi="http://sodipodi.sourceforge.net/DTD/sodipodi-0.dtd" xmlns:rdf="http://www.w3.org/1999/02/22-rdf-syntax-ns#" xmlns:svg="http://www.w3.org/2000/svg" xmlns:dc="http://purl.org/dc/elements/1.1/" xmlns:cc="http://creativecommons.org/ns#" xmlns:inkscape="http://www.inkscape.org/namespaces/inkscape" sodipodi:docname="bitcoin-logo-noshadow.svg" inkscape:version="0.48.2 r9819"
	 xmlns="http://www.w3.org/2000/svg" xmlns:xlink="http://www.w3.org/1999/xlink" x="0px" y="0px" viewBox="206 -116 1024 1024"
	 style="enable-background:new 206 -116 1024 1024;" xml:space="preserve">
<style type="text/css">
	.st0{display:none;}
	.st1{display:inline;fill:#FFFFFF;}
	.st2{display:inline;}
	.st3{fill:url(#SVGID_1_);}
	.st4{fill:url(#SVGID_2_);}
	.st5{display:inline;fill:url(#SVGID_3_);}
</style>
<g class="st0">
	<circle class="st1" cx="1094.2" cy="128.2" r="353.1"/>
	<g class="st2">
		
			<radialGradient id="SVGID_1_" cx="1163.3992" cy="792.6696" r="34.4318" gradientTransform="matrix(1.7655 0 0 -1.7655 -920.1375 1424.3173)" gradientUnits="userSpaceOnUse">
			<stop  offset="0" style="stop-color:#F9AA4B"/>
			<stop  offset="1" style="stop-color:#F7931A"/>
		</radialGradient>
		<path class="st3" d="M1093.6-13.7l-24.7,99c28,7,114.3,35.4,128.3-20.6C1211.8,6.3,1121.6-6.7,1093.6-13.7z"/>
	</g>
	<g class="st2">
		
			<radialGradient id="SVGID_2_" cx="1147.8573" cy="704.5436" r="39.858" gradientTransform="matrix(1.7655 0 0 -1.7655 -920.1375 1424.3173)" gradientUnits="userSpaceOnUse">
			<stop  offset="0" style="stop-color:#F9AA4B"/>
			<stop  offset="1" style="stop-color:#F7931A"/>
		</radialGradient>
		<path class="st4" d="M1056.5,135.3l-27.2,109.2c33.6,8.3,137.3,41.6,152.6-19.9C1197.9,160.3,1090.1,143.7,1056.5,135.3z"/>
	</g>
	
		<radialGradient id="SVGID_3_" cx="1141.9089" cy="733.1448" r="255.9972" gradientTransform="matrix(1.7655 0 0 -1.7655 -920.1375 1424.3173)" gradientUnits="userSpaceOnUse">
		<stop  offset="0" style="stop-color:#F9AA4B"/>
		<stop  offset="1" style="stop-color:#F7931A"/>
	</radialGradient>
	<path class="st5" d="M1205.2-308.5c-242.1-60.4-487.3,87-547.7,329.2c-60.4,242.1,87,487.4,329,547.7
		c242.2,60.4,487.4-87,547.8-329.1C1594.7-2.8,1447.4-248.1,1205.2-308.5z M1295.2,65.6c-6.5,44-30.9,65.3-63.3,72.8
		c44.5,23.2,67.1,58.7,45.6,120.3c-26.8,76.5-90.4,82.9-174.9,66.9l-20.6,82.3l-49.6-12.4l20.3-81.1c-12.9-3.2-26-6.6-39.5-10.3
		l-20.3,81.5l-49.5-12.4l20.5-82.4c-11.6-3-23.3-6.1-35.4-9.1L864,265.6l24.6-56.8c0,0,36.5,9.7,36,9c14,3.5,20.3-5.7,22.7-11.8
		l32.4-130l0.1-0.4l23.1-92.8c0.6-10.5-3-23.8-23.1-28.8c0.8-0.5-36-9-36-9l13.2-53l68.4,17.1l-0.1,0.3c10.3,2.6,20.9,5,31.7,7.4
		l20.3-81.4l49.6,12.4L1107-72.3c13.3,3,26.7,6.1,39.7,9.4l19.8-79.3l49.6,12.4l-20.3,81.5C1258.4-26.9,1304.2,5.5,1295.2,65.6z"/>
</g>
<image style="overflow:visible;enable-background:new    ;" width="256" height="256" xlink:href="../../../../../bitcoin_logo_doxygen.png"  transform="matrix(4 0 0 4 206 -196)">
</image>
</svg>
